<svg width="1024" height="1024" viewBox="0 0 1024 1024" fill="none" xmlns="http://www.w3.org/2000/svg">
<rect width="1024" height="1024" fill="white"/>
<path d="M314.884 426.041H191.992L191.329 365.424H298.653C316.761 365.424 332.108 362.774 344.695 357.474C357.504 351.953 367.22 344.114 373.845 333.955C380.47 323.576 383.782 311.1 383.782 296.525C383.782 280.404 380.691 267.265 374.507 257.107C368.324 246.949 358.829 239.551 346.02 234.913C333.433 230.276 317.313 227.957 297.659 227.957H217.166V644H134.024V161.708H297.659C324.158 161.708 347.787 164.248 368.545 169.327C389.524 174.406 407.301 182.356 421.875 193.177C436.671 203.776 447.823 217.247 455.331 233.588C463.06 249.93 466.925 269.363 466.925 291.887C466.925 311.762 462.177 329.98 452.681 346.543C443.185 362.884 429.163 376.244 410.613 386.623C392.063 397.002 368.987 403.185 341.383 405.173L314.884 426.041ZM311.24 644H165.824L203.254 578.082H311.24C330.01 578.082 345.689 574.991 358.277 568.808C370.864 562.403 380.249 553.681 386.432 542.639C392.836 531.377 396.038 518.238 396.038 503.221C396.038 487.542 393.278 473.961 387.757 462.478C382.237 450.774 373.514 441.831 361.589 435.647C349.664 429.243 334.096 426.041 314.884 426.041H221.473L222.135 365.424H343.702L362.583 388.279C389.082 389.163 410.834 395.015 427.838 405.835C445.063 416.656 457.871 430.679 466.262 447.903C474.654 465.128 478.849 483.678 478.849 503.552C478.849 534.248 472.114 559.974 458.644 580.732C445.394 601.49 426.292 617.28 401.338 628.1C376.385 638.7 346.352 644 311.24 644Z" fill="black"/>
<path d="M738.095 431.478H618.832L618.189 372.65H722.343C739.916 372.65 754.811 370.079 767.026 364.935C779.456 359.578 788.886 351.97 795.315 342.111C801.744 332.039 804.959 319.931 804.959 305.786C804.959 290.142 801.958 277.39 795.958 267.532C789.957 257.674 780.742 250.495 768.312 245.994C756.097 241.494 740.452 239.244 721.379 239.244H643.263V643H562.576V174.951H721.379C747.096 174.951 770.027 177.416 790.172 182.345C810.531 187.274 827.783 194.989 841.927 205.49C856.286 215.777 867.108 228.85 874.395 244.708C881.895 260.567 885.646 279.426 885.646 301.286C885.646 320.574 881.038 338.254 871.823 354.327C862.608 370.186 848.999 383.151 830.997 393.224C812.995 403.296 790.6 409.297 763.812 411.226L738.095 431.478ZM734.559 643H593.437L629.762 579.029H734.559C752.775 579.029 767.991 576.029 780.206 570.028C792.422 563.813 801.53 555.348 807.531 544.633C813.745 533.703 816.853 520.952 816.853 506.379C816.853 491.163 814.174 477.983 808.816 466.839C803.459 455.48 794.993 446.801 783.421 440.8C771.848 434.585 756.739 431.478 738.095 431.478H647.442L648.085 372.65H766.062L784.385 394.831C810.102 395.688 831.212 401.368 847.713 411.869C864.429 422.37 876.859 435.978 885.003 452.694C893.147 469.41 897.218 487.412 897.218 506.7C897.218 536.489 890.682 561.456 877.609 581.601C864.751 601.746 846.213 617.069 821.996 627.57C797.779 637.857 768.634 643 734.559 643Z" fill="#388E3C"/>
<path d="M138.633 829.915V840.964H95.712V829.915H138.633ZM99.1546 796.155V877H85.2178V796.155H99.1546ZM149.35 796.155V877H135.468V796.155H149.35ZM198.434 806.927L174.28 877H159.677L190.105 796.155H199.433L198.434 806.927ZM218.645 877L194.436 806.927L193.381 796.155H202.765L233.304 877H218.645ZM217.479 847.016V858.066H173.503V847.016H217.479ZM272.671 840.464H252.071L251.96 830.303H269.951C272.986 830.303 275.559 829.859 277.669 828.971C279.816 828.045 281.444 826.731 282.555 825.028C283.665 823.288 284.221 821.197 284.221 818.754C284.221 816.052 283.702 813.849 282.666 812.146C281.629 810.444 280.038 809.204 277.891 808.426C275.781 807.649 273.079 807.26 269.784 807.26H256.291V877H242.354V796.155H269.784C274.226 796.155 278.187 796.581 281.666 797.432C285.183 798.284 288.163 799.616 290.606 801.43C293.086 803.207 294.955 805.465 296.214 808.204C297.51 810.943 298.157 814.201 298.157 817.977C298.157 821.308 297.362 824.362 295.77 827.138C294.178 829.877 291.828 832.117 288.718 833.857C285.609 835.597 281.74 836.633 277.113 836.966L272.671 840.464ZM272.061 877H247.685L253.959 865.95H272.061C275.207 865.95 277.835 865.432 279.945 864.396C282.055 863.322 283.628 861.86 284.665 860.009C285.738 858.121 286.275 855.919 286.275 853.402C286.275 850.774 285.812 848.497 284.887 846.572C283.961 844.61 282.499 843.111 280.5 842.075C278.501 841.001 275.892 840.464 272.671 840.464H257.013L257.124 830.303H277.502L280.667 834.134C285.109 834.282 288.755 835.263 291.605 837.077C294.493 838.891 296.64 841.242 298.046 844.129C299.453 847.016 300.156 850.126 300.156 853.457C300.156 858.603 299.027 862.915 296.769 866.395C294.548 869.874 291.346 872.521 287.163 874.335C282.981 876.112 277.946 877 272.061 877ZM329.085 796.155V877H315.148V796.155H329.085ZM378.003 796.155V877H364.177V796.155H378.003ZM403.378 796.155V807.26H339.024V796.155H403.378ZM470.286 796.155V877H456.46V796.155H470.286ZM495.661 796.155V807.26H431.307V796.155H495.661ZM506.322 796.155H534.918C541.062 796.155 546.3 797.081 550.631 798.931C554.962 800.782 558.275 803.521 560.57 807.149C562.902 810.74 564.068 815.182 564.068 820.475C564.068 824.51 563.328 828.064 561.847 831.136C560.367 834.208 558.275 836.8 555.573 838.91C552.871 840.983 549.65 842.593 545.912 843.74L541.692 845.795H515.983L515.872 834.745H535.14C538.471 834.745 541.247 834.153 543.468 832.968C545.689 831.784 547.355 830.174 548.466 828.138C549.613 826.065 550.187 823.733 550.187 821.142C550.187 818.328 549.632 815.885 548.521 813.812C547.448 811.702 545.782 810.092 543.524 808.981C541.266 807.834 538.397 807.26 534.918 807.26H520.259V877H506.322V796.155ZM552.464 877L533.474 840.686L548.077 840.631L567.344 876.278V877H552.464ZM609.433 806.927L585.279 877H570.676L601.104 796.155H610.432L609.433 806.927ZM629.644 877L605.435 806.927L604.38 796.155H613.764L644.302 877H629.644ZM628.478 847.016V858.066H584.502V847.016H628.478ZM700.216 850.681H714.098C713.654 855.974 712.173 860.694 709.656 864.84C707.139 868.949 703.604 872.188 699.05 874.557C694.497 876.926 688.963 878.111 682.448 878.111C677.451 878.111 672.954 877.222 668.956 875.445C664.958 873.631 661.534 871.077 658.684 867.783C655.833 864.451 653.649 860.435 652.132 855.734C650.651 851.033 649.911 845.776 649.911 839.965V833.246C649.911 827.434 650.669 822.178 652.187 817.477C653.742 812.776 655.963 808.759 658.85 805.428C661.737 802.059 665.199 799.487 669.233 797.71C673.305 795.933 677.877 795.045 682.948 795.045C689.389 795.045 694.831 796.229 699.273 798.598C703.715 800.967 707.157 804.243 709.6 808.426C712.08 812.609 713.598 817.403 714.153 822.807H700.272C699.902 819.328 699.087 816.348 697.829 813.868C696.607 811.388 694.794 809.5 692.387 808.204C689.981 806.871 686.835 806.205 682.948 806.205C679.765 806.205 676.988 806.797 674.619 807.982C672.25 809.167 670.27 810.906 668.678 813.201C667.086 815.496 665.883 818.328 665.069 821.697C664.292 825.028 663.903 828.841 663.903 833.135V839.965C663.903 844.036 664.255 847.738 664.958 851.07C665.698 854.364 666.809 857.196 668.289 859.565C669.807 861.934 671.732 863.766 674.064 865.062C676.396 866.358 679.191 867.005 682.448 867.005C686.409 867.005 689.611 866.376 692.054 865.118C694.534 863.859 696.404 862.027 697.662 859.621C698.958 857.177 699.809 854.198 700.216 850.681ZM740.694 796.155V877H726.758V796.155H740.694ZM789.279 796.155L756.519 835.078L737.863 854.845L735.42 841.02L748.746 824.584L772.288 796.155H789.279ZM774.287 877L747.691 838.688L757.297 829.193L790.834 877H774.287ZM851.523 865.95V877H808.602V865.95H851.523ZM812.544 796.155V877H798.607V796.155H812.544ZM845.915 829.915V840.797H808.602V829.915H845.915ZM851.245 796.155V807.26H808.602V796.155H851.245ZM862.906 796.155H891.501C897.646 796.155 902.884 797.081 907.215 798.931C911.546 800.782 914.859 803.521 917.154 807.149C919.486 810.74 920.652 815.182 920.652 820.475C920.652 824.51 919.912 828.064 918.431 831.136C916.95 834.208 914.859 836.8 912.157 838.91C909.454 840.983 906.234 842.593 902.495 843.74L898.275 845.795H872.567L872.456 834.745H891.723C895.055 834.745 897.831 834.153 900.052 832.968C902.273 831.784 903.939 830.174 905.049 828.138C906.197 826.065 906.771 823.733 906.771 821.142C906.771 818.328 906.216 815.885 905.105 813.812C904.032 811.702 902.366 810.092 900.108 808.981C897.85 807.834 894.981 807.26 891.501 807.26H876.843V877H862.906V796.155ZM909.047 877L890.058 840.686L904.661 840.631L923.928 876.278V877H909.047Z" fill="black"/>
</svg>
